<svg width="289" height="289" viewBox="0 0 289 289" fill="none" xmlns="http://www.w3.org/2000/svg">
<mask id="mask0_2454_16369" style="mask-type:alpha" maskUnits="userSpaceOnUse" x="0" y="0" width="289" height="289">
<circle cx="144.5" cy="144.5" r="142.507" fill="#C4C4C4" stroke="#F8BB54" stroke-width="3.98621"/>
</mask>
<g mask="url(#mask0_2454_16369)">
<path d="M-83.9766 60.6007C-83.9766 60.6007 -16.689 48.1362 0.672082 4.51112C17.2756 -37.3084 85.6704 -48.5493 85.6704 -48.5493" stroke="#A855F7" stroke-width="4.48062" stroke-miterlimit="10"/>
<path d="M-83.9766 81.5683C-83.9766 81.5683 -1.42521 67.1822 19.8389 14.5292C40.1127 -35.7358 123.946 -48.5493 123.946 -48.5493" stroke="#A855F7" stroke-width="4.48062" stroke-miterlimit="10"/>
<path d="M-83.9766 102.595C-83.9766 102.595 13.7801 86.2281 38.9475 24.6638C62.9497 -34.2212 162.221 -48.5493 162.221 -48.5493" stroke="#A855F7" stroke-width="4.48062" stroke-miterlimit="10"/>
<path d="M-83.9766 123.563C-83.9766 123.563 29.0437 105.274 58.1143 34.6819C85.7869 -32.6486 200.497 -48.5493 200.497 -48.5493" stroke="#A855F7" stroke-width="4.48062" stroke-miterlimit="10"/>
<path d="M-83.9766 144.531C-83.9766 144.531 44.3072 124.32 77.2812 44.758C108.624 -31.076 238.714 -48.5493 238.714 -48.5493" stroke="#A855F7" stroke-width="4.48062" stroke-miterlimit="10"/>
<path d="M-83.9766 165.557C-83.9766 165.557 59.5125 143.424 96.3898 54.8341C131.519 -29.5618 276.989 -48.5493 276.989 -48.5493" stroke="#A855F7" stroke-width="4.48062" stroke-miterlimit="10"/>
<path d="M-83.9766 186.525C-83.9766 186.525 74.7761 162.412 115.557 64.9107C154.356 -27.9892 315.265 -48.5493 315.265 -48.5493" stroke="#A855F7" stroke-width="4.48062" stroke-miterlimit="10"/>
<path d="M-83.9766 207.493C-83.9766 207.493 90.0398 181.457 134.665 74.9288C177.193 -26.4166 353.54 -48.5493 353.54 -48.5493" stroke="#A855F7" stroke-width="4.48062" stroke-miterlimit="10"/>
<path d="M-83.9766 228.519C-83.9766 228.519 105.245 200.562 153.832 85.063C200.031 -24.9024 391.758 -48.5493 391.758 -48.5493" stroke="#A855F7" stroke-width="4.48062" stroke-miterlimit="10"/>
<path d="M-83.9766 249.486C-83.9766 249.486 120.509 219.608 172.941 95.1395C222.868 -23.3298 430.033 -48.5493 430.033 -48.5493" stroke="#A855F7" stroke-width="4.48062" stroke-miterlimit="10"/>
<path d="M-83.9766 270.512C-83.9766 270.512 135.772 238.653 192.108 105.216C245.705 -21.7572 468.308 -48.5493 468.308 -48.5493" stroke="#A855F7" stroke-width="4.48062" stroke-miterlimit="10"/>
<path d="M-83.9766 291.482C-83.9766 291.482 150.977 257.7 211.216 115.292C268.542 -20.2425 506.583 -48.5493 506.583 -48.5493" stroke="#A855F7" stroke-width="4.48062" stroke-miterlimit="10"/>
<path d="M-83.9766 312.447C-83.9766 312.447 166.241 276.746 230.383 125.31C291.379 -18.6699 544.858 -48.5493 544.858 -48.5493" stroke="#A855F7" stroke-width="4.48062" stroke-miterlimit="10"/>
<path d="M-83.9766 333.474C-83.9766 333.474 181.505 295.792 249.55 135.444C314.216 -17.0973 583.076 -48.5493 583.076 -48.5493" stroke="#A855F7" stroke-width="4.48062" stroke-miterlimit="10"/>
<path d="M-83.9766 354.443C-83.9766 354.443 196.71 314.838 268.658 145.463C337.053 -15.5831 621.352 -48.5493 621.352 -48.5493" stroke="#A855F7" stroke-width="4.48062" stroke-miterlimit="10"/>
<path d="M-83.9766 375.413C-83.9766 375.413 211.974 333.884 287.825 155.539C359.89 -14.0105 659.627 -48.5493 659.627 -48.5493" stroke="#A855F7" stroke-width="4.48062" stroke-miterlimit="10"/>
<path d="M-83.9766 396.44C-83.9766 396.44 227.237 352.986 306.934 165.615C382.727 -12.4379 697.902 -48.5493 697.902 -48.5493" stroke="#A855F7" stroke-width="4.48062" stroke-miterlimit="10"/>
<path d="M-83.9766 417.405C-83.9766 417.405 242.442 371.976 326.101 175.691C405.565 -10.9237 736.121 -48.5493 736.121 -48.5493" stroke="#A855F7" stroke-width="4.48062" stroke-miterlimit="10"/>
</g>
</svg>
