<svg width="64.000000" height="64.000000" viewBox="0 0 64 64" fill="none" xmlns="http://www.w3.org/2000/svg" xmlns:xlink="http://www.w3.org/1999/xlink">
	<desc>
			Created with Pixso.
	</desc>
	<defs>
		<clipPath id="clip2454_14340">
			<rect id="show chart / 24 / Outline" rx="-0.500000" width="23.000000" height="23.000000" transform="translate(20.500000 20.500000)" fill="white" fill-opacity="0"/>
		</clipPath>
	</defs>
	<rect id="Frame 18" rx="-0.500000" width="63.000000" height="63.000000" transform="translate(0.500000 0.500000)" fill="#FFFFFF" fill-opacity="0"/>
	<circle id="Ellipse 6" cx="32.000000" cy="32.000000" r="32.000000" fill="#DCFCE7" fill-opacity="1.000000"/>
	<rect id="Rectangle 19" rx="6.000000" width="64.000000" height="64.000000" fill="#22C55E" fill-opacity="1.000000"/>
	<rect id="show chart / 24 / Outline" rx="-0.500000" width="23.000000" height="23.000000" transform="translate(20.500000 20.500000)" fill="#FFFFFF" fill-opacity="0"/>
	<g clip-path="url(#clip2454_14340)">
		<path id="Vector" d="M41.71 27.28C41.61 27.19 41.5 27.12 41.38 27.07C41.26 27.02 41.13 26.99 41 26.99C40.86 26.99 40.73 27.02 40.61 27.07C40.49 27.12 40.38 27.19 40.28 27.28L34 33.59L29.71 29.28C29.61 29.19 29.5 29.12 29.38 29.07C29.26 29.02 29.13 28.99 29 28.99C28.86 28.99 28.73 29.02 28.61 29.07C28.49 29.12 28.38 29.19 28.28 29.28L22.28 35.28C22.19 35.38 22.12 35.49 22.07 35.61C22.02 35.73 21.99 35.86 21.99 35.99C21.99 36.13 22.02 36.26 22.07 36.38C22.12 36.5 22.19 36.61 22.28 36.71C22.38 36.8 22.49 36.87 22.61 36.92C22.73 36.97 22.86 37 23 37C23.13 37 23.26 36.97 23.38 36.92C23.5 36.87 23.61 36.8 23.71 36.71L29 31.4L33.28 35.71C33.38 35.8 33.49 35.87 33.61 35.92C33.73 35.97 33.86 36 34 36C34.13 36 34.26 35.97 34.38 35.92C34.5 35.87 34.61 35.8 34.71 35.71L41.71 28.71C41.8 28.61 41.87 28.5 41.92 28.38C41.97 28.26 42 28.13 42 27.99C42 27.86 41.97 27.73 41.92 27.61C41.87 27.49 41.8 27.38 41.71 27.28Z" fill="#FFFFFF" fill-opacity="1.000000" fill-rule="nonzero"/>
	</g>
</svg>
