<svg width="64.000000" height="64.000000" viewBox="0 0 64 64" fill="none" xmlns="http://www.w3.org/2000/svg" xmlns:xlink="http://www.w3.org/1999/xlink">
	<desc>
			Created with Pixso.
	</desc>
	<defs>
		<clipPath id="clip2454_14358">
			<rect id="Setting / 24 / Outline" rx="-0.500000" width="23.000000" height="23.000000" transform="translate(20.500000 20.500000)" fill="white" fill-opacity="0"/>
		</clipPath>
	</defs>
	<rect id="Frame 18" rx="-0.500000" width="63.000000" height="63.000000" transform="translate(0.500000 0.500000)" fill="#FFFFFF" fill-opacity="0"/>
	<rect id="Rectangle 19" rx="6.000000" width="64.000000" height="64.000000" fill="#22C55E" fill-opacity="1.000000"/>
	<rect id="Setting / 24 / Outline" rx="-0.500000" width="23.000000" height="23.000000" transform="translate(20.500000 20.500000)" fill="#FFFFFF" fill-opacity="0"/>
	<g clip-path="url(#clip2454_14358)">
		<path id="Vector" d="M41.31 29.55L39.43 28.92L40.31 27.14C40.41 26.95 40.44 26.74 40.4 26.53C40.37 26.33 40.27 26.14 40.13 26L38 23.87C37.85 23.72 37.66 23.62 37.45 23.59C37.24 23.55 37.03 23.58 36.84 23.68L35.06 24.56L34.43 22.68C34.37 22.48 34.24 22.31 34.07 22.18C33.91 22.06 33.7 22 33.5 22L30.5 22C30.29 21.99 30.08 22.06 29.91 22.18C29.74 22.3 29.61 22.48 29.55 22.68L28.92 24.56L27.14 23.68C26.95 23.58 26.74 23.55 26.53 23.59C26.33 23.62 26.14 23.72 26 23.87L23.87 26C23.72 26.14 23.62 26.33 23.59 26.54C23.55 26.75 23.58 26.96 23.68 27.15L24.56 28.93L22.68 29.56C22.48 29.62 22.31 29.75 22.18 29.92C22.06 30.08 22 30.29 22 30.5L22 33.5C21.99 33.7 22.06 33.91 22.18 34.08C22.3 34.25 22.48 34.38 22.68 34.45L24.56 35.08L23.68 36.86C23.58 37.04 23.55 37.25 23.59 37.46C23.62 37.66 23.72 37.85 23.87 38L26 40.13C26.14 40.27 26.33 40.37 26.54 40.4C26.75 40.44 26.96 40.41 27.15 40.31L28.93 39.43L29.56 41.31C29.62 41.51 29.75 41.69 29.92 41.81C30.09 41.93 30.3 42 30.51 42L33.5 42C33.71 42 33.92 41.93 34.09 41.81C34.26 41.69 34.39 41.51 34.46 41.31L35.09 39.43L36.87 40.31C37.05 40.4 37.26 40.43 37.46 40.4C37.66 40.36 37.85 40.27 38 40.13L40.13 38C40.27 37.85 40.37 37.66 40.4 37.45C40.44 37.24 40.41 37.03 40.31 36.84L39.43 35.06L41.31 34.43C41.51 34.37 41.68 34.24 41.81 34.07C41.93 33.91 41.99 33.7 42 33.5L42 30.5C42 30.29 41.93 30.08 41.81 29.91C41.69 29.74 41.51 29.61 41.31 29.55ZM40 32.78L38.8 33.18C38.52 33.26 38.27 33.41 38.05 33.61C37.84 33.81 37.67 34.05 37.56 34.32C37.45 34.58 37.4 34.87 37.41 35.16C37.43 35.45 37.5 35.74 37.64 36L38.21 37.14L37.11 38.24L36 37.64C35.74 37.51 35.46 37.44 35.17 37.43C34.89 37.42 34.6 37.47 34.34 37.58C34.07 37.69 33.83 37.85 33.64 38.06C33.44 38.27 33.3 38.52 33.21 38.8L32.81 40L31.22 40L30.81 38.8C30.73 38.52 30.58 38.27 30.38 38.05C30.18 37.84 29.94 37.67 29.67 37.56C29.41 37.45 29.12 37.4 28.83 37.41C28.54 37.43 28.25 37.5 28 37.64L26.86 38.21L25.76 37.11L26.36 36C26.49 35.74 26.56 35.45 26.58 35.16C26.59 34.87 26.54 34.58 26.43 34.32C26.32 34.05 26.15 33.81 25.94 33.61C25.72 33.41 25.47 33.26 25.2 33.18L24 32.78L24 31.22L25.2 30.81C25.47 30.73 25.72 30.58 25.94 30.38C26.15 30.18 26.32 29.94 26.43 29.67C26.54 29.41 26.59 29.12 26.58 28.83C26.56 28.54 26.49 28.25 26.36 28L25.79 26.89L26.89 25.79L28 26.36C28.25 26.49 28.54 26.56 28.83 26.58C29.12 26.59 29.41 26.54 29.67 26.43C29.94 26.32 30.18 26.15 30.38 25.94C30.58 25.72 30.73 25.47 30.81 25.2L31.22 24L32.78 24L33.18 25.2C33.26 25.47 33.41 25.72 33.61 25.94C33.81 26.15 34.05 26.32 34.32 26.43C34.58 26.54 34.87 26.59 35.16 26.58C35.45 26.56 35.74 26.49 36 26.36L37.14 25.79L38.24 26.89L37.64 28C37.51 28.25 37.44 28.53 37.43 28.82C37.42 29.11 37.47 29.39 37.58 29.65C37.69 29.92 37.85 30.16 38.06 30.35C38.27 30.55 38.52 30.69 38.8 30.79L40 31.18L40 32.78ZM32 28C31.2 28 30.43 28.23 29.77 28.67C29.11 29.11 28.6 29.73 28.3 30.46C28 31.2 27.92 32 28.07 32.78C28.23 33.55 28.61 34.26 29.17 34.82C29.73 35.38 30.44 35.76 31.21 35.92C31.99 36.07 32.79 35.99 33.53 35.69C34.26 35.39 34.88 34.88 35.32 34.22C35.76 33.56 36 32.79 36 32C36 30.93 35.57 29.92 34.82 29.17C34.07 28.42 33.06 28 32 28ZM32 34C31.6 34 31.21 33.88 30.88 33.66C30.55 33.44 30.3 33.13 30.15 32.76C30 32.39 29.96 31.99 30.03 31.6C30.11 31.22 30.3 30.86 30.58 30.58C30.86 30.3 31.22 30.11 31.6 30.03C31.99 29.96 32.39 30 32.76 30.15C33.13 30.3 33.44 30.55 33.66 30.88C33.88 31.21 34 31.6 34 32C34 32.53 33.78 33.03 33.41 33.41C33.03 33.78 32.53 34 32 34Z" fill="#FFFFFF" fill-opacity="1.000000" fill-rule="nonzero"/>
	</g>
</svg>
