<svg width="64.000000" height="64.000000" viewBox="0 0 64 64" fill="none" xmlns="http://www.w3.org/2000/svg" xmlns:xlink="http://www.w3.org/1999/xlink">
	<desc>
			Created with Pixso.
	</desc>
	<defs>
		<clipPath id="clip2454_14333">
			<rect id="Edit / 24 / Outline" rx="-0.500000" width="23.000000" height="23.000000" transform="translate(20.500000 20.500000)" fill="white" fill-opacity="0"/>
		</clipPath>
	</defs>
	<rect id="Frame 18" rx="-0.500000" width="63.000000" height="63.000000" transform="translate(0.500000 0.500000)" fill="#FFFFFF" fill-opacity="0"/>
	<rect id="Rectangle 19" rx="6.000000" width="64.000000" height="64.000000" fill="#22C55E" fill-opacity="1.000000"/>
	<rect id="Edit / 24 / Outline" rx="-0.500000" width="23.000000" height="23.000000" transform="translate(20.500000 20.500000)" fill="#FFFFFF" fill-opacity="0"/>
	<g clip-path="url(#clip2454_14333)">
		<path id="Vector" d="M25 38L29.24 38C29.37 38 29.5 37.97 29.62 37.92C29.74 37.87 29.85 37.8 29.95 37.71L36.87 30.77L39.71 28C39.8 27.9 39.87 27.79 39.92 27.67C39.97 27.55 40 27.42 40 27.28C40 27.15 39.97 27.02 39.92 26.9C39.87 26.78 39.8 26.67 39.71 26.58L35.47 22.28C35.37 22.19 35.26 22.12 35.14 22.07C35.02 22.02 34.89 21.99 34.75 21.99C34.62 21.99 34.49 22.02 34.37 22.07C34.25 22.12 34.14 22.19 34.05 22.28L31.23 25.12L24.29 32.04C24.19 32.14 24.12 32.25 24.07 32.37C24.02 32.49 23.99 32.62 24 32.75L24 37C24 37.26 24.1 37.51 24.29 37.7C24.48 37.89 24.73 38 25 38ZM34.75 24.4L37.59 27.24L36.16 28.65L33.34 25.83L34.75 24.4ZM26 33.16L31.93 27.24L34.75 30.06L28.83 36L26 36L26 33.16ZM41 40L23 40C22.73 40 22.48 40.1 22.29 40.29C22.1 40.48 22 40.73 22 41C22 41.26 22.1 41.51 22.29 41.7C22.48 41.89 22.73 42 23 42L41 42C41.26 42 41.51 41.89 41.7 41.7C41.89 41.51 42 41.26 42 41C42 40.73 41.89 40.48 41.7 40.29C41.51 40.1 41.26 40 41 40Z" fill="#FFFFFF" fill-opacity="1.000000" fill-rule="nonzero"/>
	</g>
</svg>
