<svg width="64.000000" height="64.000000" viewBox="0 0 64 64" fill="none" xmlns="http://www.w3.org/2000/svg" xmlns:xlink="http://www.w3.org/1999/xlink">
	<desc>
			Created with Pixso.
	</desc>
	<defs>
		<clipPath id="clip2454_14346">
			<rect id="grid / 24 / Outline" rx="-0.500000" width="23.000000" height="23.000000" transform="translate(20.500000 20.500000)" fill="white" fill-opacity="0"/>
		</clipPath>
	</defs>
	<rect id="Frame 18" rx="-0.500000" width="63.000000" height="63.000000" transform="translate(0.500000 0.500000)" fill="#FFFFFF" fill-opacity="0"/>
	<rect id="Rectangle 19" rx="6.000000" width="64.000000" height="64.000000" fill="#22C55E" fill-opacity="1.000000"/>
	<rect id="grid / 24 / Outline" rx="-0.500000" width="23.000000" height="23.000000" transform="translate(20.500000 20.500000)" fill="#FFFFFF" fill-opacity="0"/>
	<g clip-path="url(#clip2454_14346)">
		<path id="Vector" d="M30 33L23 33C22.73 33 22.48 33.1 22.29 33.29C22.1 33.48 22 33.73 22 34L22 41C22 41.26 22.1 41.51 22.29 41.7C22.48 41.89 22.73 42 23 42L30 42C30.26 42 30.51 41.89 30.7 41.7C30.89 41.51 31 41.26 31 41L31 34C31 33.73 30.89 33.48 30.7 33.29C30.51 33.1 30.26 33 30 33ZM29 40L24 40L24 35L29 35L29 40ZM41 22L34 22C33.73 22 33.48 22.1 33.29 22.29C33.1 22.48 33 22.73 33 23L33 30C33 30.26 33.1 30.51 33.29 30.7C33.48 30.89 33.73 31 34 31L41 31C41.26 31 41.51 30.89 41.7 30.7C41.89 30.51 42 30.26 42 30L42 23C42 22.73 41.89 22.48 41.7 22.29C41.51 22.1 41.26 22 41 22ZM40 29L35 29L35 24L40 24L40 29ZM41 33L34 33C33.73 33 33.48 33.1 33.29 33.29C33.1 33.48 33 33.73 33 34L33 41C33 41.26 33.1 41.51 33.29 41.7C33.48 41.89 33.73 42 34 42L41 42C41.26 42 41.51 41.89 41.7 41.7C41.89 41.51 42 41.26 42 41L42 34C42 33.73 41.89 33.48 41.7 33.29C41.51 33.1 41.26 33 41 33ZM40 40L35 40L35 35L40 35L40 40ZM30 22L23 22C22.73 22 22.48 22.1 22.29 22.29C22.1 22.48 22 22.73 22 23L22 30C22 30.26 22.1 30.51 22.29 30.7C22.48 30.89 22.73 31 23 31L30 31C30.26 31 30.51 30.89 30.7 30.7C30.89 30.51 31 30.26 31 30L31 23C31 22.73 30.89 22.48 30.7 22.29C30.51 22.1 30.26 22 30 22ZM29 29L24 29L24 24L29 24L29 29Z" fill="#FFFFFF" fill-opacity="1.000000" fill-rule="nonzero"/>
	</g>
</svg>
