<svg width="64.000000" height="64.000000" viewBox="0 0 64 64" fill="none" xmlns="http://www.w3.org/2000/svg" xmlns:xlink="http://www.w3.org/1999/xlink">
	<desc>
			Created with Pixso.
	</desc>
	<defs>
		<clipPath id="clip2454_14352">
			<rect id="users / 24 / Outline" rx="-0.500000" width="23.000000" height="23.000000" transform="translate(20.500000 20.500000)" fill="white" fill-opacity="0"/>
		</clipPath>
	</defs>
	<rect id="Frame 18" rx="-0.500000" width="63.000000" height="63.000000" transform="translate(0.500000 0.500000)" fill="#FFFFFF" fill-opacity="0"/>
	<rect id="Rectangle 19" rx="6.000000" width="64.000000" height="64.000000" fill="#22C55E" fill-opacity="1.000000"/>
	<rect id="users / 24 / Outline" rx="-0.500000" width="23.000000" height="23.000000" transform="translate(20.500000 20.500000)" fill="#FFFFFF" fill-opacity="0"/>
	<g clip-path="url(#clip2454_14352)">
		<path id="Vector" d="M32.3 32.22C32.83 31.75 33.26 31.18 33.55 30.54C33.84 29.9 34 29.2 34 28.5C34 27.17 33.47 25.9 32.53 24.96C31.59 24.02 30.32 23.5 29 23.5C27.67 23.5 26.4 24.02 25.46 24.96C24.52 25.9 24 27.17 24 28.5C24 29.2 24.15 29.9 24.44 30.54C24.73 31.18 25.16 31.75 25.7 32.22C24.3 32.85 23.11 33.87 22.27 35.16C21.44 36.45 21 37.96 21 39.5C21 39.76 21.1 40.01 21.29 40.2C21.48 40.39 21.73 40.5 22 40.5C22.26 40.5 22.51 40.39 22.7 40.2C22.89 40.01 23 39.76 23 39.5C23 37.9 23.63 36.38 24.75 35.25C25.88 34.13 27.4 33.5 29 33.5C30.59 33.5 32.11 34.13 33.24 35.25C34.36 36.38 35 37.9 35 39.5C35 39.76 35.1 40.01 35.29 40.2C35.48 40.39 35.73 40.5 36 40.5C36.26 40.5 36.51 40.39 36.7 40.2C36.89 40.01 37 39.76 37 39.5C36.99 37.96 36.55 36.45 35.72 35.16C34.88 33.87 33.69 32.85 32.3 32.22ZM29 31.5C28.4 31.5 27.82 31.32 27.33 30.99C26.84 30.66 26.45 30.19 26.22 29.64C26 29.09 25.94 28.49 26.05 27.91C26.17 27.33 26.45 26.79 26.87 26.37C27.29 25.95 27.83 25.67 28.41 25.55C28.99 25.44 29.59 25.5 30.14 25.72C30.69 25.95 31.16 26.34 31.49 26.83C31.82 27.32 32 27.9 32 28.5C32 29.29 31.68 30.05 31.12 30.62C30.55 31.18 29.79 31.5 29 31.5ZM38.74 31.82C39.38 31.09 39.79 30.2 39.94 29.25C40.08 28.3 39.95 27.32 39.56 26.45C39.16 25.57 38.52 24.82 37.71 24.3C36.9 23.77 35.96 23.49 35 23.5C34.73 23.5 34.48 23.6 34.29 23.79C34.1 23.98 34 24.23 34 24.5C34 24.76 34.1 25.01 34.29 25.2C34.48 25.39 34.73 25.5 35 25.5C35.79 25.5 36.55 25.81 37.12 26.37C37.68 26.94 38 27.7 38 28.5C37.99 29.02 37.85 29.54 37.59 29.99C37.33 30.45 36.95 30.82 36.5 31.09C36.35 31.17 36.22 31.29 36.14 31.44C36.05 31.59 36 31.75 36 31.93C35.99 32.09 36.03 32.26 36.11 32.41C36.19 32.56 36.3 32.69 36.45 32.79L36.84 33.05L36.97 33.12C38.17 33.69 39.19 34.59 39.9 35.72C40.6 36.85 40.98 38.16 40.97 39.5C40.97 39.76 41.07 40.01 41.26 40.2C41.45 40.39 41.7 40.5 41.97 40.5C42.23 40.5 42.48 40.39 42.67 40.2C42.86 40.01 42.97 39.76 42.97 39.5C42.97 37.96 42.59 36.45 41.85 35.11C41.11 33.76 40.04 32.63 38.74 31.82Z" fill="#FFFFFF" fill-opacity="1.000000" fill-rule="nonzero"/>
	</g>
</svg>
