<svg width="64.000000" height="64.000000" viewBox="0 0 64 64" fill="none" xmlns="http://www.w3.org/2000/svg" xmlns:xlink="http://www.w3.org/1999/xlink">
	<desc>
			Created with Pixso.
	</desc>
	<defs>
		<clipPath id="clip2454_14327">
			<rect id="messages / 24 / Outline" rx="-0.500000" width="23.000000" height="23.000000" transform="translate(20.500000 20.500000)" fill="white" fill-opacity="0"/>
		</clipPath>
	</defs>
	<rect id="Frame 18" rx="-0.500000" width="63.000000" height="63.000000" transform="translate(0.500000 0.500000)" fill="#FFFFFF" fill-opacity="0"/>
	<rect id="Rectangle 19" rx="6.000000" width="64.000000" height="64.000000" fill="#22C55E" fill-opacity="1.000000"/>
	<rect id="messages / 24 / Outline" rx="-0.500000" width="23.000000" height="23.000000" transform="translate(20.500000 20.500000)" fill="#FFFFFF" fill-opacity="0"/>
	<g clip-path="url(#clip2454_14327)">
		<path id="Vector" d="M37 41.63L25 41.63C24.2 41.63 23.44 41.31 22.87 40.75C22.31 40.18 22 39.42 22 38.63L22 30.63C22 30.36 21.89 30.11 21.7 29.92C21.51 29.73 21.26 29.63 21 29.63C20.73 29.63 20.48 29.73 20.29 29.92C20.1 30.11 20 30.36 20 30.63L20 38.63C20 39.95 20.52 41.22 21.46 42.16C22.4 43.1 23.67 43.63 25 43.63L37 43.63C37.26 43.63 37.51 43.52 37.7 43.33C37.89 43.14 38 42.89 38 42.63C38 42.36 37.89 42.11 37.7 41.92C37.51 41.73 37.26 41.63 37 41.63ZM41 23.63L27 23.63C26.2 23.63 25.44 23.94 24.87 24.5C24.31 25.07 24 25.83 24 26.63L24 36.63C24 37.42 24.31 38.18 24.87 38.75C25.44 39.31 26.2 39.63 27 39.63L41 39.63C41.79 39.63 42.55 39.31 43.12 38.75C43.68 38.18 44 37.42 44 36.63L44 26.63C44 25.83 43.68 25.07 43.12 24.5C42.55 23.94 41.79 23.63 41 23.63ZM40.59 25.63L34.71 31.51C34.61 31.6 34.5 31.67 34.38 31.72C34.26 31.77 34.13 31.8 34 31.8C33.86 31.8 33.73 31.77 33.61 31.72C33.49 31.67 33.38 31.6 33.29 31.51L27.41 25.63L40.59 25.63ZM42 36.63C42 36.89 41.89 37.14 41.7 37.33C41.51 37.52 41.26 37.63 41 37.63L27 37.63C26.73 37.63 26.48 37.52 26.29 37.33C26.1 37.14 26 36.89 26 36.63L26 27L31.88 32.88C32.44 33.44 33.2 33.75 34 33.75C34.79 33.75 35.55 33.44 36.12 32.88L42 27L42 36.63Z" fill="#FFFFFF" fill-opacity="1.000000" fill-rule="nonzero"/>
	</g>
</svg>
