<svg width="192" height="24" viewBox="0 0 192 24" fill="none" xmlns="http://www.w3.org/2000/svg">
<path fill-rule="evenodd" clip-rule="evenodd" d="M13.6348 20.7275V12.7662H16.3582L16.7668 9.66268H13.6348V7.6815C13.6348 6.78323 13.8881 6.17107 15.2029 6.17107L16.877 6.1704V3.39446C16.5875 3.35756 15.5937 3.27295 14.437 3.27295C12.0216 3.27295 10.368 4.71903 10.368 7.37413V9.66268H7.63635V12.7662H10.368V20.7275H13.6348Z" fill="#22C55E"/>
<mask id="mask0_2454_16691" style="mask-type:luminance" maskUnits="userSpaceOnUse" x="7" y="3" width="10" height="18">
<path fill-rule="evenodd" clip-rule="evenodd" d="M13.6348 20.7275V12.7662H16.3582L16.7668 9.66268H13.6348V7.6815C13.6348 6.78323 13.8881 6.17107 15.2029 6.17107L16.877 6.1704V3.39446C16.5875 3.35756 15.5937 3.27295 14.437 3.27295C12.0216 3.27295 10.368 4.71903 10.368 7.37413V9.66268H7.63635V12.7662H10.368V20.7275H13.6348Z" fill="white"/>
</mask>
<g mask="url(#mask0_2454_16691)">
</g>
<path fill-rule="evenodd" clip-rule="evenodd" d="M77.8181 6.1461C77.1356 6.44856 76.4032 6.65368 75.6336 6.74525C76.4194 6.27474 77.0208 5.52844 77.3059 4.64189C76.5689 5.07762 75.7553 5.39401 74.8885 5.56553C74.1943 4.82501 73.2069 4.36377 72.1118 4.36377C70.0108 4.36377 68.3072 6.06731 68.3072 8.16719C68.3072 8.46501 68.3408 8.75589 68.4057 9.03404C65.2443 8.87525 62.441 7.36062 60.5648 5.05907C60.2369 5.61998 60.0503 6.27356 60.0503 6.97122C60.0503 8.29119 60.7224 9.45586 61.7423 10.1373C61.1188 10.1164 60.5324 9.94489 60.019 9.6598V9.70732C60.019 11.5499 61.3309 13.0877 63.0703 13.4377C62.7516 13.5235 62.4156 13.571 62.0679 13.571C61.8222 13.571 61.5846 13.5467 61.3517 13.5003C61.8361 15.0126 63.2407 16.1124 64.9048 16.1426C63.6034 17.1624 61.9624 17.7685 60.1801 17.7685C59.873 17.7685 59.5705 17.7499 59.2727 17.7163C60.9566 18.7976 62.9556 19.428 65.1042 19.428C72.1026 19.428 75.928 13.6313 75.928 8.6041L75.9153 8.11159C76.6627 7.57847 77.3094 6.90865 77.8181 6.1461Z" fill="#22C55E"/>
<mask id="mask1_2454_16691" style="mask-type:luminance" maskUnits="userSpaceOnUse" x="59" y="4" width="19" height="16">
<path fill-rule="evenodd" clip-rule="evenodd" d="M77.8181 6.1461C77.1356 6.44856 76.4032 6.65368 75.6336 6.74525C76.4194 6.27474 77.0208 5.52844 77.3059 4.64189C76.5689 5.07762 75.7553 5.39401 74.8885 5.56553C74.1943 4.82501 73.2069 4.36377 72.1118 4.36377C70.0108 4.36377 68.3072 6.06731 68.3072 8.16719C68.3072 8.46501 68.3408 8.75589 68.4057 9.03404C65.2443 8.87525 62.441 7.36062 60.5648 5.05907C60.2369 5.61998 60.0503 6.27356 60.0503 6.97122C60.0503 8.29119 60.7224 9.45586 61.7423 10.1373C61.1188 10.1164 60.5324 9.94489 60.019 9.6598V9.70732C60.019 11.5499 61.3309 13.0877 63.0703 13.4377C62.7516 13.5235 62.4156 13.571 62.0679 13.571C61.8222 13.571 61.5846 13.5467 61.3517 13.5003C61.8361 15.0126 63.2407 16.1124 64.9048 16.1426C63.6034 17.1624 61.9624 17.7685 60.1801 17.7685C59.873 17.7685 59.5705 17.7499 59.2727 17.7163C60.9566 18.7976 62.9556 19.428 65.1042 19.428C72.1026 19.428 75.928 13.6313 75.928 8.6041L75.9153 8.11159C76.6627 7.57847 77.3094 6.90865 77.8181 6.1461Z" fill="white"/>
</mask>
<g mask="url(#mask1_2454_16691)">
</g>
<path fill-rule="evenodd" clip-rule="evenodd" d="M119.601 2.18164H128.399C131.387 2.18164 133.818 4.61264 133.818 7.60057V16.3991C133.818 19.387 131.387 21.818 128.399 21.818H119.601C116.613 21.818 114.182 19.3871 114.182 16.3991V7.60057C114.182 4.61264 116.613 2.18164 119.601 2.18164ZM128.399 20.0758C130.427 20.0758 132.076 18.4265 132.076 16.3991H132.076V7.60057C132.076 5.5733 130.426 3.92387 128.399 3.92387H119.601C117.573 3.92387 115.924 5.5733 115.924 7.60057V16.3991C115.924 18.4265 117.573 20.0759 119.601 20.0758H128.399ZM118.857 11.9999C118.857 9.16406 121.164 6.85697 124 6.85697C126.836 6.85697 129.143 9.16406 129.143 11.9999C129.143 14.8357 126.836 17.1427 124 17.1427C121.164 17.1427 118.857 14.8357 118.857 11.9999ZM120.628 11.9998C120.628 13.8591 122.141 15.3717 124 15.3717C125.859 15.3717 127.372 13.8591 127.372 11.9998C127.372 10.1404 125.859 8.62772 124 8.62772C122.141 8.62772 120.628 10.1404 120.628 11.9998Z" fill="#22C55E"/>
<mask id="mask2_2454_16691" style="mask-type:luminance" maskUnits="userSpaceOnUse" x="114" y="2" width="20" height="20">
<path fill-rule="evenodd" clip-rule="evenodd" d="M119.601 2.18164H128.399C131.387 2.18164 133.818 4.61264 133.818 7.60057V16.3991C133.818 19.387 131.387 21.818 128.399 21.818H119.601C116.613 21.818 114.182 19.3871 114.182 16.3991V7.60057C114.182 4.61264 116.613 2.18164 119.601 2.18164ZM128.399 20.0758C130.427 20.0758 132.076 18.4265 132.076 16.3991H132.076V7.60057C132.076 5.5733 130.426 3.92387 128.399 3.92387H119.601C117.573 3.92387 115.924 5.5733 115.924 7.60057V16.3991C115.924 18.4265 117.573 20.0759 119.601 20.0758H128.399ZM118.857 11.9999C118.857 9.16406 121.164 6.85697 124 6.85697C126.836 6.85697 129.143 9.16406 129.143 11.9999C129.143 14.8357 126.836 17.1427 124 17.1427C121.164 17.1427 118.857 14.8357 118.857 11.9999ZM120.628 11.9998C120.628 13.8591 122.141 15.3717 124 15.3717C125.859 15.3717 127.372 13.8591 127.372 11.9998C127.372 10.1404 125.859 8.62772 124 8.62772C122.141 8.62772 120.628 10.1404 120.628 11.9998Z" fill="white"/>
</mask>
<g mask="url(#mask2_2454_16691)">
</g>
<path d="M187.2 3H172.8C171.81 3 171 3.81 171 4.8V19.2C171 20.19 171.81 21 172.8 21H187.2C188.19 21 189 20.19 189 19.2V4.8C189 3.81 188.19 3 187.2 3ZM176.4 18.3H173.7V10.2H176.4V18.3ZM175.05 8.67C174.15 8.67 173.43 7.95 173.43 7.05C173.43 6.15 174.15 5.43 175.05 5.43C175.95 5.43 176.67 6.15 176.67 7.05C176.67 7.95 175.95 8.67 175.05 8.67ZM186.3 18.3H183.6V13.53C183.6 12.81 182.97 12.18 182.25 12.18C181.53 12.18 180.9 12.81 180.9 13.53V18.3H178.2V10.2H180.9V11.28C181.35 10.56 182.34 10.02 183.15 10.02C184.86 10.02 186.3 11.46 186.3 13.17V18.3Z" fill="#22C55E"/>
</svg>
